<svg xmlns="http://www.w3.org/2000/svg" width="100" height="100" viewBox="0 0 100 100">
  <symbol id="online-shopping" viewBox="0 0 100 100">
  	<path fill="currentcolor" fill-rule="evenodd" id="icon" d="M71.064,33.006a2.666,2.666,0,0,0-2.092-1.015H41.855a2.665,2.665,0,0,0-2.538,3.478l4.991,15.607a1.657,1.657,0,0,0,1.579,1.154h20.3a1.658,1.658,0,0,0,1.612-1.27l3.761-15.68A2.67,2.67,0,0,0,71.064,33.006ZM70.423,55.184H44.236a2.127,2.127,0,0,1-2.029-1.476L35,31.355a5.077,5.077,0,0,0-4.846-3.532H28.577a2.429,2.429,0,0,0,0,4.857h1.575a0.235,0.235,0,0,1,.225.164L37.586,55.2a6.969,6.969,0,0,0,6.65,4.845H70.423A2.429,2.429,0,0,0,70.423,55.184ZM45.957,62.837a3.873,3.873,0,1,0,3.871,3.873A3.872,3.872,0,0,0,45.957,62.837Zm20.329,0a3.873,3.873,0,1,0,3.871,3.873A3.872,3.872,0,0,0,66.286,62.837Z"/>
  </symbol>
   
</svg>
