<svg xmlns:dc="http://purl.org/dc/elements/1.1/" xmlns:cc="http://creativecommons.org/ns#" xmlns:rdf="http://www.w3.org/1999/02/22-rdf-syntax-ns#" xmlns:svg="http://www.w3.org/2000/svg" xmlns="http://www.w3.org/2000/svg" xmlns:sodipodi="http://sodipodi.sourceforge.net/DTD/sodipodi-0.dtd" xmlns:inkscape="http://www.inkscape.org/namespaces/inkscape" viewBox="0 0 6.6145832 8.268229375" version="1.1" x="0px" y="0px"><g transform="translate(0,-290.38541)"><path style="color:#e44754;font-style:normal;font-variant:normal;font-weight:normal;font-stretch:normal;font-size:medium;line-height:normal;font-family:sans-serif;font-variant-ligatures:normal;font-variant-position:normal;font-variant-caps:normal;font-variant-numeric:normal;font-variant-alternates:normal;font-feature-settings:normal;text-indent:0;text-align:start;text-decoration:none;text-decoration-line:none;text-decoration-style:solid;text-decoration-color:#e44754;letter-spacing:normal;word-spacing:normal;text-transform:none;writing-mode:lr-tb;direction:ltr;text-orientation:mixed;dominant-baseline:auto;baseline-shift:baseline;text-anchor:start;white-space:normal;shape-padding:0;clip-rule:nonzero;display:inline;overflow:visible;visibility:visible;opacity:1;isolation:auto;mix-blend-mode:normal;color-interpolation:sRGB;color-interpolation-filters:linearRGB;solid-color:#e44754;solid-opacity:1;vector-effect:none;fill:#e44754;fill-opacity:1;fill-rule:nonzero;stroke:none;stroke-width:1;stroke-linecap:round;stroke-linejoin:round;stroke-miterlimit:4;stroke-dasharray:none;stroke-dashoffset:0;stroke-opacity:1;color-rendering:auto;image-rendering:auto;shape-rendering:auto;text-rendering:auto;enable-background:accumulate" d="M 6.4960938 1.0097656 A 0.50004999 0.50004999 0 0 0 6.0019531 1.5175781 L 6.0019531 3.4707031 A 0.50004996 0.50004996 0 0 0 6.0019531 3.4960938 L 6.0019531 12.501953 L 6.0019531 23.457031 A 0.50004999 0.50004999 0 1 0 6.9980469 23.457031 L 6.9980469 12.876953 L 21.644531 8.4785156 A 0.50004996 0.50004996 0 0 0 21.644531 7.5195312 L 6.9980469 3.1289062 L 6.9980469 1.5175781 A 0.50004999 0.50004999 0 0 0 6.4960938 1.0097656 z " transform="matrix(0.26458333,0,0,0.26458333,0,290.38541)"/></g><text x="0" y="21.614583500000002" fill="#e44754" font-size="5px" font-weight="bold" font-family="'Helvetica Neue', Helvetica, Arial-Unicode, Arial, Sans-serif">Created by bayu wibowo</text><text x="0" y="26.614583500000002" fill="#e44754" font-size="5px" font-weight="bold" font-family="'Helvetica Neue', Helvetica, Arial-Unicode, Arial, Sans-serif">from the Noun Project</text></svg>