<svg xmlns="http://www.w3.org/2000/svg" viewBox="0 0 145 56"><symbol fill="currentcolor" id="logo">
	<path  d="M104.65,69.6a18.79,18.79,0,0,1-8.1-7.41A21.61,21.61,0,0,1,93.73,51a35.34,35.34,0,0,1,3.33-15.66,25.88,25.88,0,0,1,9-10.59A22.54,22.54,0,0,1,118.75,21q6.48,0,9.84,3.33a11.83,11.83,0,0,1,3.36,8.79A11.65,11.65,0,0,1,130.66,39a4.4,4.4,0,0,1-6.33,1.44,2.76,2.76,0,0,1-1-2.28,14.41,14.41,0,0,1,.24-2,15.5,15.5,0,0,0,.36-2.88q0-5.46-5.82-5.46a12.79,12.79,0,0,0-7.56,2.58A18,18,0,0,0,104.77,38a29.24,29.24,0,0,0-2.22,11.91q0,7.2,4,11.13T118.45,65a32.67,32.67,0,0,0,7.89-1,61.25,61.25,0,0,0,8.85-3,4.22,4.22,0,0,1,1.5-.36,1.62,1.62,0,0,1,1.44.72,3.3,3.3,0,0,1,.48,1.86q0,3.66-4,5.4a41.2,41.2,0,0,1-8.85,2.73,47,47,0,0,1-8.73.87A27.72,27.72,0,0,1,104.65,69.6Z" transform="translate(-93.73 -15.51)"/><path d="M135.37,69.51a10.79,10.79,0,0,1-2.22-7.08,19.51,19.51,0,0,1,2.22-9.09,19,19,0,0,1,5.91-6.9,13.33,13.33,0,0,1,7.83-2.61,2.34,2.34,0,0,1,1.77.51,4.33,4.33,0,0,1,.75,1.83,14.15,14.15,0,0,1,2.64-.24q2.94,0,2.94,2.1a45,45,0,0,1-.9,6,58.18,58.18,0,0,0-1.38,9.6,2.18,2.18,0,0,0,.45,1.44,1.45,1.45,0,0,0,1.17.54,4.56,4.56,0,0,0,2.76-1.47,51.26,51.26,0,0,0,4.38-4.77,2.11,2.11,0,0,1,1.62-.84,1.39,1.39,0,0,1,1.23.72,3.72,3.72,0,0,1,.45,2,5.52,5.52,0,0,1-1.14,3.72,30.27,30.27,0,0,1-5.22,5.16,8.9,8.9,0,0,1-5.34,2.1,5.6,5.6,0,0,1-3.63-1.35,8.22,8.22,0,0,1-2.49-3.69q-3.12,5-7.86,5A7.3,7.3,0,0,1,135.37,69.51ZM146,64.59a10.12,10.12,0,0,0,1.74-4.14l2.22-11a7.27,7.27,0,0,0-4.65,1.89,12.74,12.74,0,0,0-3.39,4.83,16.26,16.26,0,0,0-1.26,6.36,4.25,4.25,0,0,0,.75,2.76,2.55,2.55,0,0,0,2.07.9A3.29,3.29,0,0,0,146,64.59Z" transform="translate(-93.73 -15.51)"/><path d="M196.66,59.25a3.72,3.72,0,0,1,.45,2A5.52,5.52,0,0,1,196,64.95a31.61,31.61,0,0,1-5.67,5.22,11.27,11.27,0,0,1-6.63,2A5.83,5.83,0,0,1,179,70.44a7.52,7.52,0,0,1-1.56-5.13,37.4,37.4,0,0,1,.84-6,31.09,31.09,0,0,0,.78-5.22q0-1-.66-1t-2.22,2a29.54,29.54,0,0,0-2.88,5.31,43.14,43.14,0,0,0-2.34,7q-1.14,4.8-5.64,4.8A2.32,2.32,0,0,1,163,70.92a12.91,12.91,0,0,1-.57-4.65q0-1.92.06-3.06l.06-4.8a104,104,0,0,1,1.89-19.26A57.89,57.89,0,0,1,170,22.32q3.69-6.81,8.85-6.81a5.27,5.27,0,0,1,4.47,2.37A10.27,10.27,0,0,1,185,24a26.29,26.29,0,0,1-3.54,12.57Q178,43.11,170,51.81q-.18,3.12-.18,6.42a34.45,34.45,0,0,1,4.41-8.31,17.22,17.22,0,0,1,4.8-4.59,8.79,8.79,0,0,1,4.35-1.38q3.9,0,3.9,3.9a48.28,48.28,0,0,1-1.32,8.46,41.58,41.58,0,0,0-1.14,6.9q0,2.4,1.74,2.4a4.69,4.69,0,0,0,2.85-1.47,48.16,48.16,0,0,0,4.41-4.77,2.11,2.11,0,0,1,1.62-.84A1.39,1.39,0,0,1,196.66,59.25ZM175.21,24.54a52.28,52.28,0,0,0-2.55,8.34,111.22,111.22,0,0,0-2,11.43,42.89,42.89,0,0,0,6.15-9.54,22.27,22.27,0,0,0,2.43-9.36,8.05,8.05,0,0,0-.42-2.94q-.42-1-1.2-1Q176.53,21.45,175.21,24.54Z" transform="translate(-93.73 -15.51)"/><path d="M220.24,59.25a3.72,3.72,0,0,1,.45,2,5.52,5.52,0,0,1-1.14,3.72,21.92,21.92,0,0,1-6.27,5,17.39,17.39,0,0,1-8.67,2.28q-6.3,0-9.78-3.42t-3.48-9.36a17.35,17.35,0,0,1,1.74-7.71A14.25,14.25,0,0,1,197.92,46a12.15,12.15,0,0,1,7-2.1A7.61,7.61,0,0,1,210.49,46a7.52,7.52,0,0,1,2.1,5.61,9.7,9.7,0,0,1-3,7.11q-3,3-10,4.71,1.5,2.76,5.7,2.76a13.12,13.12,0,0,0,6.15-1.89,20.33,20.33,0,0,0,6-5,2.11,2.11,0,0,1,1.62-.84A1.39,1.39,0,0,1,220.24,59.25Zm-20.1-6.84a12,12,0,0,0-1.53,6.24v.12a13.63,13.63,0,0,0,5.58-2.52,5,5,0,0,0,2-3.9,2.61,2.61,0,0,0-.63-1.83,2.2,2.2,0,0,0-1.71-.69Q201.67,49.83,200.14,52.41Z" transform="translate(-93.73 -15.51)"/><path  d="M238.53,61a3.72,3.72,0,0,1,.45,2,6.65,6.65,0,0,1-1,3.72,11.68,11.68,0,0,1-4.41,4A13.78,13.78,0,0,1,227,72.21q-5.76,0-8.94-3.45t-3.18-9.33a17.35,17.35,0,0,1,1.74-7.71A14.24,14.24,0,0,1,221.49,46a12.15,12.15,0,0,1,7-2.1A7.61,7.61,0,0,1,234.07,46a7.52,7.52,0,0,1,2.1,5.61,9.7,9.7,0,0,1-3,7.11q-3,3-10.11,4.71a5,5,0,0,0,4.86,2.76,6.78,6.78,0,0,0,4-1.14,19.61,19.61,0,0,0,3.69-3.84,2.06,2.06,0,0,1,1.62-.9A1.39,1.39,0,0,1,238.53,61Zm-14.82-8.64a12,12,0,0,0-1.53,6.24v.12a13.63,13.63,0,0,0,5.58-2.52,5,5,0,0,0,2-3.9,2.61,2.61,0,0,0-.63-1.83,2.2,2.2,0,0,0-1.71-.69Q225.24,49.83,223.72,52.41Z" transform="translate(-93.73 -15.51)"/>
</symbol></svg>